<?xml version="1.0" encoding="utf-8" ?>
<svg baseProfile="tiny" height="1080" version="1.2" width="1920" xmlns="http://www.w3.org/2000/svg" xmlns:ev="http://www.w3.org/2001/xml-events" xmlns:xlink="http://www.w3.org/1999/xlink"><defs /><polygon fill="black" points="600.0,888.0 579.0,884.5 571.0,875.0 579.5,862.5 604.0,852.0 652.0,828.0 690.0,775.0 741.5,655.0 786.0,545.0 829.5,432.5 877.0,305.0 886.0,277.0 891.0,247.0 909.0,241.0 927.0,232.0 939.5,214.0 946.0,198.0 948.5,197.0 951.0,199.0 954.5,209.0 958.0,221.0 1008.0,376.0 1058.5,528.5 1103.5,660.5 1136.0,755.0 1166.0,815.0 1199.5,843.0 1237.0,855.0 1262.0,864.5 1270.0,878.0 1262.0,886.0 1241.0,888.0 1203.0,886.5 1152.0,883.5 1102.0,882.0 1063.0,882.0 1026.0,882.5 997.0,883.0 976.0,880.0 968.0,871.0 978.0,859.0 1001.0,852.0 1048.0,835.0 1062.0,807.0 1055.5,763.5 1040.0,702.5 1023.0,645.0 1015.5,635.5 996.0,634.0 807.0,634.0 798.5,637.5 790.0,652.0 780.0,683.5 766.0,729.0 754.0,772.0 749.0,796.0 766.0,832.5 807.0,853.0 840.0,873.0 832.0,881.5 811.0,884.0 773.0,883.0 720.0,882.0 656.0,885.0 600.0,888.0" stroke="none" /><polygon fill="black" points="834.0,601.0 989.0,601.0 1003.0,596.0 1002.5,591.5 1001.0,586.0 923.0,342.0 914.0,324.0 906.0,341.0 815.0,586.0 813.0,594.0 818.5,600.0 834.0,601.0" stroke="none" /><circle cx="600.0" cy="888.0" fill="white" r="12.0" /><text fill="black" font-size="10" text-anchor="middle" x="600.0" y="891.5">1</text><circle cx="579.0" cy="884.5" fill="white" r="12.0" /><text fill="black" font-size="10" text-anchor="middle" x="579.0" y="888.0">2</text><circle cx="571.0" cy="875.0" fill="white" r="12.0" /><text fill="black" font-size="10" text-anchor="middle" x="571.0" y="878.5">3</text><circle cx="579.5" cy="862.5" fill="white" r="12.0" /><text fill="black" font-size="10" text-anchor="middle" x="579.5" y="866.0">4</text><circle cx="604.0" cy="852.0" fill="white" r="12.0" /><text fill="black" font-size="10" text-anchor="middle" x="604.0" y="855.5">5</text><circle cx="652.0" cy="828.0" fill="white" r="12.0" /><text fill="black" font-size="10" text-anchor="middle" x="652.0" y="831.5">6</text><circle cx="690.0" cy="775.0" fill="white" r="12.0" /><text fill="black" font-size="10" text-anchor="middle" x="690.0" y="778.5">7</text><circle cx="741.5" cy="655.0" fill="white" r="12.0" /><text fill="black" font-size="10" text-anchor="middle" x="741.5" y="658.5">8</text><circle cx="786.0" cy="545.0" fill="white" r="12.0" /><text fill="black" font-size="10" text-anchor="middle" x="786.0" y="548.5">9</text><circle cx="829.5" cy="432.5" fill="white" r="12.0" /><text fill="black" font-size="10" text-anchor="middle" x="829.5" y="436.0">10</text><circle cx="877.0" cy="305.0" fill="white" r="12.0" /><text fill="black" font-size="10" text-anchor="middle" x="877.0" y="308.5">11</text><circle cx="886.0" cy="277.0" fill="white" r="12.0" /><text fill="black" font-size="10" text-anchor="middle" x="886.0" y="280.5">12</text><circle cx="891.0" cy="247.0" fill="white" r="12.0" /><text fill="black" font-size="10" text-anchor="middle" x="891.0" y="250.5">13</text><circle cx="909.0" cy="241.0" fill="white" r="12.0" /><text fill="black" font-size="10" text-anchor="middle" x="909.0" y="244.5">14</text><circle cx="927.0" cy="232.0" fill="white" r="12.0" /><text fill="black" font-size="10" text-anchor="middle" x="927.0" y="235.5">15</text><circle cx="939.5" cy="214.0" fill="white" r="12.0" /><text fill="black" font-size="10" text-anchor="middle" x="939.5" y="217.5">16</text><circle cx="946.0" cy="198.0" fill="white" r="12.0" /><text fill="black" font-size="10" text-anchor="middle" x="946.0" y="201.5">17</text><circle cx="948.5" cy="197.0" fill="white" r="12.0" /><text fill="black" font-size="10" text-anchor="middle" x="948.5" y="200.5">18</text><circle cx="951.0" cy="199.0" fill="white" r="12.0" /><text fill="black" font-size="10" text-anchor="middle" x="951.0" y="202.5">19</text><circle cx="954.5" cy="209.0" fill="white" r="12.0" /><text fill="black" font-size="10" text-anchor="middle" x="954.5" y="212.5">20</text><circle cx="958.0" cy="221.0" fill="white" r="12.0" /><text fill="black" font-size="10" text-anchor="middle" x="958.0" y="224.5">21</text><circle cx="1008.0" cy="376.0" fill="white" r="12.0" /><text fill="black" font-size="10" text-anchor="middle" x="1008.0" y="379.5">22</text><circle cx="1058.5" cy="528.5" fill="white" r="12.0" /><text fill="black" font-size="10" text-anchor="middle" x="1058.5" y="532.0">23</text><circle cx="1103.5" cy="660.5" fill="white" r="12.0" /><text fill="black" font-size="10" text-anchor="middle" x="1103.5" y="664.0">24</text><circle cx="1136.0" cy="755.0" fill="white" r="12.0" /><text fill="black" font-size="10" text-anchor="middle" x="1136.0" y="758.5">25</text><circle cx="1166.0" cy="815.0" fill="white" r="12.0" /><text fill="black" font-size="10" text-anchor="middle" x="1166.0" y="818.5">26</text><circle cx="1199.5" cy="843.0" fill="white" r="12.0" /><text fill="black" font-size="10" text-anchor="middle" x="1199.5" y="846.5">27</text><circle cx="1237.0" cy="855.0" fill="white" r="12.0" /><text fill="black" font-size="10" text-anchor="middle" x="1237.0" y="858.5">28</text><circle cx="1262.0" cy="864.5" fill="white" r="12.0" /><text fill="black" font-size="10" text-anchor="middle" x="1262.0" y="868.0">29</text><circle cx="1270.0" cy="878.0" fill="white" r="12.0" /><text fill="black" font-size="10" text-anchor="middle" x="1270.0" y="881.5">30</text><circle cx="1262.0" cy="886.0" fill="white" r="12.0" /><text fill="black" font-size="10" text-anchor="middle" x="1262.0" y="889.5">31</text><circle cx="1241.0" cy="888.0" fill="white" r="12.0" /><text fill="black" font-size="10" text-anchor="middle" x="1241.0" y="891.5">32</text><circle cx="1203.0" cy="886.5" fill="white" r="12.0" /><text fill="black" font-size="10" text-anchor="middle" x="1203.0" y="890.0">33</text><circle cx="1152.0" cy="883.5" fill="white" r="12.0" /><text fill="black" font-size="10" text-anchor="middle" x="1152.0" y="887.0">34</text><circle cx="1102.0" cy="882.0" fill="white" r="12.0" /><text fill="black" font-size="10" text-anchor="middle" x="1102.0" y="885.5">35</text><circle cx="1063.0" cy="882.0" fill="white" r="12.0" /><text fill="black" font-size="10" text-anchor="middle" x="1063.0" y="885.5">36</text><circle cx="1026.0" cy="882.5" fill="white" r="12.0" /><text fill="black" font-size="10" text-anchor="middle" x="1026.0" y="886.0">37</text><circle cx="997.0" cy="883.0" fill="white" r="12.0" /><text fill="black" font-size="10" text-anchor="middle" x="997.0" y="886.5">38</text><circle cx="976.0" cy="880.0" fill="white" r="12.0" /><text fill="black" font-size="10" text-anchor="middle" x="976.0" y="883.5">39</text><circle cx="968.0" cy="871.0" fill="white" r="12.0" /><text fill="black" font-size="10" text-anchor="middle" x="968.0" y="874.5">40</text><circle cx="978.0" cy="859.0" fill="white" r="12.0" /><text fill="black" font-size="10" text-anchor="middle" x="978.0" y="862.5">41</text><circle cx="1001.0" cy="852.0" fill="white" r="12.0" /><text fill="black" font-size="10" text-anchor="middle" x="1001.0" y="855.5">42</text><circle cx="1048.0" cy="835.0" fill="white" r="12.0" /><text fill="black" font-size="10" text-anchor="middle" x="1048.0" y="838.5">43</text><circle cx="1062.0" cy="807.0" fill="white" r="12.0" /><text fill="black" font-size="10" text-anchor="middle" x="1062.0" y="810.5">44</text><circle cx="1055.5" cy="763.5" fill="white" r="12.0" /><text fill="black" font-size="10" text-anchor="middle" x="1055.5" y="767.0">45</text><circle cx="1040.0" cy="702.5" fill="white" r="12.0" /><text fill="black" font-size="10" text-anchor="middle" x="1040.0" y="706.0">46</text><circle cx="1023.0" cy="645.0" fill="white" r="12.0" /><text fill="black" font-size="10" text-anchor="middle" x="1023.0" y="648.5">47</text><circle cx="1015.5" cy="635.5" fill="white" r="12.0" /><text fill="black" font-size="10" text-anchor="middle" x="1015.5" y="639.0">48</text><circle cx="996.0" cy="634.0" fill="white" r="12.0" /><text fill="black" font-size="10" text-anchor="middle" x="996.0" y="637.5">49</text><circle cx="807.0" cy="634.0" fill="white" r="12.0" /><text fill="black" font-size="10" text-anchor="middle" x="807.0" y="637.5">50</text><circle cx="798.5" cy="637.5" fill="white" r="12.0" /><text fill="black" font-size="10" text-anchor="middle" x="798.5" y="641.0">51</text><circle cx="790.0" cy="652.0" fill="white" r="12.0" /><text fill="black" font-size="10" text-anchor="middle" x="790.0" y="655.5">52</text><circle cx="780.0" cy="683.5" fill="white" r="12.0" /><text fill="black" font-size="10" text-anchor="middle" x="780.0" y="687.0">53</text><circle cx="766.0" cy="729.0" fill="white" r="12.0" /><text fill="black" font-size="10" text-anchor="middle" x="766.0" y="732.5">54</text><circle cx="754.0" cy="772.0" fill="white" r="12.0" /><text fill="black" font-size="10" text-anchor="middle" x="754.0" y="775.5">55</text><circle cx="749.0" cy="796.0" fill="white" r="12.0" /><text fill="black" font-size="10" text-anchor="middle" x="749.0" y="799.5">56</text><circle cx="766.0" cy="832.5" fill="white" r="12.0" /><text fill="black" font-size="10" text-anchor="middle" x="766.0" y="836.0">57</text><circle cx="807.0" cy="853.0" fill="white" r="12.0" /><text fill="black" font-size="10" text-anchor="middle" x="807.0" y="856.5">58</text><circle cx="840.0" cy="873.0" fill="white" r="12.0" /><text fill="black" font-size="10" text-anchor="middle" x="840.0" y="876.5">59</text><circle cx="832.0" cy="881.5" fill="white" r="12.0" /><text fill="black" font-size="10" text-anchor="middle" x="832.0" y="885.0">60</text><circle cx="811.0" cy="884.0" fill="white" r="12.0" /><text fill="black" font-size="10" text-anchor="middle" x="811.0" y="887.5">61</text><circle cx="773.0" cy="883.0" fill="white" r="12.0" /><text fill="black" font-size="10" text-anchor="middle" x="773.0" y="886.5">62</text><circle cx="720.0" cy="882.0" fill="white" r="12.0" /><text fill="black" font-size="10" text-anchor="middle" x="720.0" y="885.5">63</text><circle cx="656.0" cy="885.0" fill="white" r="12.0" /><text fill="black" font-size="10" text-anchor="middle" x="656.0" y="888.5">64</text><circle cx="600.0" cy="888.0" fill="white" r="12.0" /><text fill="black" font-size="10" text-anchor="middle" x="600.0" y="891.5">65</text><circle cx="834.0" cy="601.0" fill="white" r="12.0" /><text fill="black" font-size="10" text-anchor="middle" x="834.0" y="604.5">66</text><circle cx="989.0" cy="601.0" fill="white" r="12.0" /><text fill="black" font-size="10" text-anchor="middle" x="989.0" y="604.5">67</text><circle cx="1003.0" cy="596.0" fill="white" r="12.0" /><text fill="black" font-size="10" text-anchor="middle" x="1003.0" y="599.5">68</text><circle cx="1002.5" cy="591.5" fill="white" r="12.0" /><text fill="black" font-size="10" text-anchor="middle" x="1002.5" y="595.0">69</text><circle cx="1001.0" cy="586.0" fill="white" r="12.0" /><text fill="black" font-size="10" text-anchor="middle" x="1001.0" y="589.5">70</text><circle cx="923.0" cy="342.0" fill="white" r="12.0" /><text fill="black" font-size="10" text-anchor="middle" x="923.0" y="345.5">71</text><circle cx="914.0" cy="324.0" fill="white" r="12.0" /><text fill="black" font-size="10" text-anchor="middle" x="914.0" y="327.5">72</text><circle cx="906.0" cy="341.0" fill="white" r="12.0" /><text fill="black" font-size="10" text-anchor="middle" x="906.0" y="344.5">73</text><circle cx="815.0" cy="586.0" fill="white" r="12.0" /><text fill="black" font-size="10" text-anchor="middle" x="815.0" y="589.5">74</text><circle cx="813.0" cy="594.0" fill="white" r="12.0" /><text fill="black" font-size="10" text-anchor="middle" x="813.0" y="597.5">75</text><circle cx="818.5" cy="600.0" fill="white" r="12.0" /><text fill="black" font-size="10" text-anchor="middle" x="818.5" y="603.5">76</text><circle cx="834.0" cy="601.0" fill="white" r="12.0" /><text fill="black" font-size="10" text-anchor="middle" x="834.0" y="604.5">77</text></svg>